<svg width="400" height="400" viewBox="0 0 400 400" fill="none" xmlns="http://www.w3.org/2000/svg">
<path fill-rule="evenodd" clip-rule="evenodd" d="M268 74.562V84.618L270.708 85.576C278.514 88.338 287.59 92.274 298.583 97.663C302.062 99.368 302.698 99.741 303.466 100.52C307.659 104.778 305.367 111.809 299.449 112.84C297.451 113.188 296.749 112.966 290.75 110.088C281.353 105.58 268.983 100.167 268.079 100.167C268.035 100.167 268 113.993 268 130.891V161.615L270.165 161.725C298.841 163.176 319.279 193.861 311.571 223.891C311.083 225.793 309.732 229.939 309.499 230.25C309.43 230.342 309.317 230.604 309.248 230.833C309.032 231.548 307.679 234.348 306.792 235.917C299.047 249.619 286.193 257.676 271.375 258.118L268 258.218V274.086V289.954L270.219 289.41C277.614 287.595 285.03 285.407 293.083 282.664C294.917 282.04 296.792 281.404 297.25 281.251C297.708 281.098 298.233 280.913 298.417 280.839C298.6 280.765 299.8 280.324 301.083 279.86C302.367 279.395 306.267 277.95 309.75 276.648L316.083 274.28L317.75 274.265C323.784 274.21 327.209 280.563 323.875 285.628C322.844 287.194 321.656 287.923 317.833 289.336C316.779 289.725 315.692 290.138 315.417 290.252C314.877 290.477 308.38 292.861 306.333 293.586C301.015 295.469 299.509 295.993 296.474 297.013C290.805 298.917 286.563 300.205 278.753 302.393L276.757 302.952L276.536 303.934C276.176 305.537 276.195 311.367 276.567 313.5C278.554 324.9 283.016 332.248 288.76 333.58C292.239 334.386 299.533 332.681 306.64 329.398C307.313 329.088 307.887 328.833 307.916 328.833C308.157 328.833 314.61 325.672 317.417 324.179C321.064 322.239 328.424 318.095 334.25 314.701C335.9 313.74 337.494 312.814 337.792 312.643C339.417 311.714 340.13 311.308 341.019 310.807C341.238 310.684 341.454 310.546 341.5 310.5C341.546 310.454 341.762 310.316 341.981 310.193C342.2 310.069 342.631 309.826 342.94 309.651C348.216 306.66 362.703 297.791 366.816 295.032C379.504 286.523 383.154 278.059 381.845 260.186C381.281 252.499 380.218 241.443 379.573 236.583C379.099 233.002 378.286 227.649 377.89 225.5C377.121 221.32 376.372 217.591 375.448 213.333C374.148 207.346 374.061 205.667 374.954 203.783C375.63 202.354 377.101 200.844 378.392 200.254C379.244 199.864 379.317 199.789 379.242 199.372C379.197 199.122 379.053 198.204 378.922 197.333C378.657 195.568 378.352 193.811 377.838 191.083C377.648 190.075 377.404 188.706 377.296 188.042C377.188 187.377 377.036 186.833 376.957 186.833C376.878 186.833 376.85 186.775 376.894 186.704C376.938 186.633 376.875 186.089 376.754 185.496C376.299 183.262 375.83 181.05 375.605 180.083C375.061 177.738 374.621 175.856 374.417 175C374.163 173.938 373.09 169.805 372.751 168.583C372.624 168.125 372.372 167.188 372.19 166.5C371.865 165.265 371.701 164.7 371.005 162.417C370.81 161.775 370.577 160.95 370.489 160.583C370.4 160.217 370.259 159.767 370.176 159.583C370.093 159.4 369.824 158.575 369.578 157.75C369.012 155.851 368.673 154.82 368.506 154.495C368.435 154.354 368.319 153.979 368.249 153.661C368.18 153.343 367.916 152.521 367.663 151.833C367.411 151.146 366.775 149.383 366.251 147.917C365.172 144.895 364.709 143.638 364.409 142.917C364.295 142.642 364.014 141.892 363.785 141.25C362.814 138.536 362.908 138.667 361.934 138.667C355.343 138.667 351.402 129.63 355.864 124.748L356.704 123.829L356.269 122.91C356.029 122.405 355.833 121.942 355.833 121.881C355.833 121.821 355.687 121.467 355.509 121.094C355.33 120.722 355.107 120.21 355.013 119.958C354.849 119.52 354.792 119.5 353.706 119.5C351.426 119.5 349.538 118.712 348.112 117.165C347.261 116.242 343.23 108.841 342.596 107.04C341.981 105.288 338.222 99.464 335.692 96.343C330.1 89.443 326.06 86.846 307.442 78.186C306.631 77.809 305.937 77.5 305.901 77.5C305.796 77.5 302.766 76.119 300.417 75C298.536 74.104 297.126 73.457 294.25 72.168C288.989 69.811 282.462 67.462 277.833 66.258C274.314 65.344 272.507 65.011 268.792 64.595L268 64.506V74.562Z" fill="#BA1727"/>
<path fill-rule="evenodd" clip-rule="evenodd" d="M131.458 64.591C131.318 64.739 131.283 84.561 131.423 84.701C131.472 84.75 132.653 84.42 134.048 83.967C137.044 82.994 142.635 81.401 145.333 80.751C146.387 80.497 147.31 80.235 147.384 80.169C147.586 79.988 145.767 75.042 144.59 72.573C142.303 67.774 140.392 65.808 137.221 64.99C135.856 64.638 131.688 64.349 131.458 64.591ZM264.365 64.679C259.2 65.349 256.639 68.408 253.226 77.986C252.355 80.429 252.155 80.14 255.25 80.903C258.274 81.648 262.603 82.883 265.708 83.887L268 84.627V74.564V64.5L266.708 64.521C265.998 64.533 264.944 64.604 264.365 64.679ZM192.417 89.598C167.614 90.511 150.727 93.373 133.542 99.576L131.333 100.373V130.995V161.618L133.292 161.732C163.919 163.516 182.689 197.793 170.126 229C163.798 244.72 149.591 256.165 134.333 257.836C133.371 257.942 132.34 258.062 132.043 258.104L131.503 258.181L131.46 274.009C131.422 287.96 131.446 289.846 131.667 289.91C133.038 290.306 141.242 291.992 145.009 292.652C182.337 299.192 231.263 298.324 265.664 290.51C266.9 290.23 267.932 290 267.956 290C267.98 290 268 282.8 268 274V258H267.249C257.643 258 244.311 250.634 237.063 241.322C213.286 210.773 229.835 164.812 265.692 161.808L268 161.615V130.896C268 101.811 267.985 100.17 267.708 100.025C265.424 98.827 252.507 95.127 245.5 93.664C231.246 90.687 209.044 88.986 192.417 89.598Z" fill="#EDEDED"/>
<path fill-rule="evenodd" clip-rule="evenodd" d="M258.744 67.208L257.917 68.083L258.792 67.256C259.273 66.801 259.667 66.408 259.667 66.381C259.667 66.257 259.512 66.395 258.744 67.208ZM191.792 89.622C192.181 89.657 192.819 89.657 193.208 89.622C193.598 89.587 193.279 89.558 192.5 89.558C191.721 89.558 191.402 89.587 191.792 89.622ZM206.792 89.622C207.181 89.657 207.819 89.657 208.208 89.622C208.598 89.587 208.279 89.558 207.5 89.558C206.721 89.558 206.402 89.587 206.792 89.622ZM187.208 89.786C187.46 89.824 187.873 89.824 188.125 89.786C188.377 89.748 188.171 89.717 187.667 89.717C187.162 89.717 186.956 89.748 187.208 89.786ZM211.875 89.786C212.127 89.824 212.54 89.824 212.792 89.786C213.044 89.748 212.838 89.717 212.333 89.717C211.829 89.717 211.623 89.748 211.875 89.786ZM178.96 90.285C179.168 90.324 179.468 90.323 179.627 90.281C179.786 90.239 179.617 90.207 179.25 90.209C178.883 90.211 178.753 90.245 178.96 90.285ZM220.46 90.285C220.668 90.324 220.968 90.323 221.127 90.281C221.286 90.239 221.117 90.207 220.75 90.209C220.383 90.211 220.253 90.245 220.46 90.285ZM177.042 90.448C177.202 90.49 177.465 90.49 177.625 90.448C177.785 90.406 177.654 90.372 177.333 90.372C177.012 90.372 176.881 90.406 177.042 90.448ZM222.375 90.448C222.535 90.49 222.798 90.49 222.958 90.448C223.119 90.406 222.987 90.372 222.667 90.372C222.346 90.372 222.215 90.406 222.375 90.448ZM297.958 112.951C298.165 112.991 298.502 112.991 298.708 112.951C298.915 112.911 298.746 112.879 298.333 112.879C297.921 112.879 297.752 112.911 297.958 112.951ZM353.883 129.667C353.883 130.171 353.915 130.377 353.953 130.125C353.991 129.873 353.991 129.46 353.953 129.208C353.915 128.956 353.883 129.162 353.883 129.667ZM158 171.885C158 171.914 158.244 172.158 158.542 172.427L159.083 172.917L158.594 172.375C158.138 171.87 158 171.757 158 171.885ZM241.406 172.375L240.917 172.917L241.458 172.427C241.963 171.971 242.077 171.833 241.948 171.833C241.919 171.833 241.675 172.077 241.406 172.375ZM161.5 175.417C161.811 175.737 162.103 176 162.149 176C162.195 176 161.978 175.737 161.667 175.417C161.356 175.096 161.064 174.833 161.018 174.833C160.972 174.833 161.189 175.096 161.5 175.417ZM238.406 175.375L237.917 175.917L238.458 175.427C238.963 174.971 239.077 174.833 238.948 174.833C238.919 174.833 238.675 175.077 238.406 175.375ZM376.409 201.708L375.75 202.417L376.458 201.758C377.117 201.145 377.243 201 377.117 201C377.09 201 376.771 201.319 376.409 201.708ZM173.879 205.167C173.879 205.579 173.911 205.748 173.951 205.542C173.991 205.335 173.991 204.998 173.951 204.792C173.911 204.585 173.879 204.754 173.879 205.167ZM226.042 205.417C226.044 205.783 226.078 205.914 226.118 205.706C226.158 205.499 226.156 205.199 226.115 205.04C226.073 204.88 226.04 205.05 226.042 205.417ZM313.052 209.25C313.053 209.8 313.084 210.005 313.121 209.705C313.158 209.406 313.157 208.956 313.119 208.705C313.081 208.455 313.051 208.7 313.052 209.25ZM226.045 212.167C226.045 212.579 226.078 212.748 226.118 212.542C226.157 212.335 226.157 211.998 226.118 211.792C226.078 211.585 226.045 211.754 226.045 212.167ZM173.879 212.333C173.879 212.746 173.911 212.915 173.951 212.708C173.991 212.502 173.991 212.165 173.951 211.958C173.911 211.752 173.879 211.921 173.879 212.333ZM313.056 213C313.056 213.688 313.085 213.969 313.121 213.625C313.157 213.281 313.157 212.719 313.121 212.375C313.085 212.031 313.056 212.313 313.056 213ZM312.875 215.75C312.877 216.117 312.911 216.247 312.951 216.04C312.991 215.832 312.99 215.532 312.948 215.373C312.906 215.214 312.874 215.383 312.875 215.75ZM159.079 245.542L157.75 246.917L159.125 245.587C159.881 244.856 160.5 244.237 160.5 244.212C160.5 244.091 160.314 244.265 159.079 245.542ZM240.5 245.25C241.091 245.846 241.611 246.333 241.657 246.333C241.703 246.333 241.257 245.846 240.667 245.25C240.076 244.654 239.555 244.167 239.51 244.167C239.464 244.167 239.909 244.654 240.5 245.25ZM298.995 246.125L297.917 247.25L299.042 246.171C300.087 245.17 300.243 245 300.12 245C300.095 245 299.588 245.506 298.995 246.125ZM380.705 247C380.705 247.321 380.74 247.452 380.782 247.292C380.823 247.131 380.823 246.869 380.782 246.708C380.74 246.548 380.705 246.679 380.705 247ZM381.205 252.333C381.205 252.654 381.24 252.785 381.282 252.625C381.323 252.465 381.323 252.202 381.282 252.042C381.24 251.881 381.205 252.012 381.205 252.333ZM133.127 257.951C133.334 257.991 133.634 257.99 133.794 257.948C133.953 257.906 133.783 257.874 133.417 257.875C133.05 257.877 132.92 257.911 133.127 257.951ZM266.294 257.951C266.501 257.991 266.801 257.99 266.96 257.948C267.12 257.906 266.95 257.874 266.583 257.875C266.217 257.877 266.086 257.911 266.294 257.951ZM274.375 257.948C274.535 257.99 274.798 257.99 274.958 257.948C275.119 257.906 274.987 257.872 274.667 257.872C274.346 257.872 274.215 257.906 274.375 257.948ZM272.208 258.115C272.369 258.157 272.631 258.157 272.792 258.115C272.952 258.073 272.821 258.039 272.5 258.039C272.179 258.039 272.048 258.073 272.208 258.115ZM381.709 258.583C381.711 258.95 381.745 259.08 381.785 258.873C381.824 258.666 381.823 258.366 381.781 258.206C381.739 258.047 381.707 258.217 381.709 258.583ZM381.875 260.583C381.877 260.95 381.911 261.08 381.951 260.873C381.991 260.666 381.99 260.366 381.948 260.206C381.906 260.047 381.874 260.217 381.875 260.583ZM382.069 265.417C382.07 267.158 382.094 267.848 382.124 266.95C382.154 266.051 382.154 264.626 382.124 263.783C382.094 262.94 382.069 263.675 382.069 265.417ZM381.879 270.667C381.879 271.079 381.911 271.248 381.951 271.042C381.991 270.835 381.991 270.498 381.951 270.292C381.911 270.085 381.879 270.254 381.879 270.667ZM322.833 276.25C323.144 276.571 323.436 276.833 323.482 276.833C323.528 276.833 323.311 276.571 323 276.25C322.689 275.929 322.397 275.667 322.351 275.667C322.305 275.667 322.522 275.929 322.833 276.25ZM322.906 286.708L322.417 287.25L322.958 286.76C323.463 286.304 323.577 286.167 323.448 286.167C323.419 286.167 323.175 286.41 322.906 286.708ZM375.073 288.208L374.583 288.75L375.125 288.26C375.63 287.804 375.743 287.667 375.615 287.667C375.586 287.667 375.342 287.91 375.073 288.208ZM372.906 290.375L372.417 290.917L372.958 290.427C373.463 289.971 373.577 289.833 373.448 289.833C373.419 289.833 373.175 290.077 372.906 290.375ZM164.708 295.448C164.869 295.49 165.131 295.49 165.292 295.448C165.452 295.406 165.321 295.372 165 295.372C164.679 295.372 164.548 295.406 164.708 295.448ZM234.708 295.448C234.869 295.49 235.131 295.49 235.292 295.448C235.452 295.406 235.321 295.372 235 295.372C234.679 295.372 234.548 295.406 234.708 295.448ZM166.46 295.618C166.668 295.658 166.968 295.656 167.127 295.615C167.286 295.573 167.117 295.54 166.75 295.542C166.383 295.544 166.253 295.578 166.46 295.618ZM232.96 295.618C233.168 295.658 233.468 295.656 233.627 295.615C233.786 295.573 233.617 295.54 233.25 295.542C232.883 295.544 232.753 295.578 232.96 295.618ZM170.292 295.951C170.498 295.991 170.835 295.991 171.042 295.951C171.248 295.911 171.079 295.879 170.667 295.879C170.254 295.879 170.085 295.911 170.292 295.951ZM228.958 295.951C229.165 295.991 229.502 295.991 229.708 295.951C229.915 295.911 229.746 295.879 229.333 295.879C228.921 295.879 228.752 295.911 228.958 295.951ZM172.46 296.118C172.668 296.158 172.968 296.156 173.127 296.115C173.286 296.073 173.117 296.04 172.75 296.042C172.383 296.044 172.253 296.078 172.46 296.118ZM226.958 296.118C227.165 296.157 227.502 296.157 227.708 296.118C227.915 296.078 227.746 296.045 227.333 296.045C226.921 296.045 226.752 296.078 226.958 296.118ZM174.875 296.282C175.035 296.323 175.298 296.323 175.458 296.282C175.619 296.24 175.487 296.205 175.167 296.205C174.846 296.205 174.715 296.24 174.875 296.282ZM224.542 296.282C224.702 296.323 224.965 296.323 225.125 296.282C225.285 296.24 225.154 296.205 224.833 296.205C224.512 296.205 224.381 296.24 224.542 296.282ZM177.794 296.451C178.001 296.491 178.301 296.49 178.46 296.448C178.62 296.406 178.45 296.374 178.083 296.375C177.717 296.377 177.586 296.411 177.794 296.451ZM221.627 296.451C221.834 296.491 222.134 296.49 222.294 296.448C222.453 296.406 222.283 296.374 221.917 296.375C221.55 296.377 221.42 296.411 221.627 296.451ZM180.208 296.621C180.552 296.657 181.115 296.657 181.458 296.621C181.802 296.585 181.521 296.556 180.833 296.556C180.146 296.556 179.865 296.585 180.208 296.621ZM218.542 296.621C218.885 296.657 219.448 296.657 219.792 296.621C220.135 296.585 219.854 296.556 219.167 296.556C218.479 296.556 218.198 296.585 218.542 296.621ZM184.125 296.787C184.423 296.824 184.91 296.824 185.208 296.787C185.506 296.75 185.262 296.72 184.667 296.72C184.071 296.72 183.827 296.75 184.125 296.787ZM214.788 296.787C215.084 296.824 215.609 296.824 215.955 296.788C216.3 296.752 216.058 296.722 215.417 296.721C214.775 296.721 214.492 296.75 214.788 296.787ZM189.625 296.954C189.923 296.991 190.41 296.991 190.708 296.954C191.006 296.917 190.762 296.887 190.167 296.887C189.571 296.887 189.327 296.917 189.625 296.954ZM209.288 296.954C209.584 296.99 210.109 296.991 210.455 296.955C210.8 296.919 210.558 296.889 209.917 296.888C209.275 296.887 208.992 296.917 209.288 296.954ZM283.833 330.917C284.144 331.237 284.436 331.5 284.482 331.5C284.528 331.5 284.311 331.237 284 330.917C283.689 330.596 283.397 330.333 283.351 330.333C283.305 330.333 283.522 330.596 283.833 330.917Z" fill="#603236"/>
<path fill-rule="evenodd" clip-rule="evenodd" d="M131.5 75.0533V85.1066L128.792 86.0644C120.986 88.8256 111.909 92.7606 100.916 98.1481C97.4366 99.8527 96.8006 100.226 96.0326 101.004C91.8394 105.261 94.1315 112.29 100.05 113.321C102.048 113.669 102.75 113.447 108.749 110.57C118.146 106.063 130.517 100.651 131.421 100.651C131.465 100.651 131.5 114.474 131.5 131.367V162.083L129.335 162.193C100.658 163.644 80.2189 194.32 87.9273 224.342C88.4153 226.244 89.7663 230.389 89.9994 230.7C90.0684 230.792 90.1814 231.054 90.2504 231.282C90.4664 231.997 91.8194 234.797 92.7065 236.365C100.452 250.063 113.306 258.118 128.125 258.56L131.5 258.66V274.524V290.388L129.281 289.844C121.886 288.029 114.469 285.842 106.416 283.1C104.582 282.476 102.707 281.84 102.249 281.687C101.791 281.534 101.266 281.349 101.082 281.275C100.899 281.201 99.6987 280.76 98.4157 280.296C97.1316 279.831 93.2315 278.387 89.7483 277.085L83.4151 274.718L81.748 274.703C75.7138 274.648 72.2886 280.999 75.6228 286.063C76.6538 287.628 77.8419 288.357 81.665 289.77C82.7191 290.159 83.8061 290.572 84.0811 290.686C84.6211 290.911 91.1184 293.294 93.1655 294.019C98.4837 295.901 99.9897 296.425 103.025 297.445C108.694 299.348 112.936 300.636 120.747 302.823L122.743 303.382L122.964 304.364C123.324 305.967 123.305 311.795 122.933 313.927C120.946 325.324 116.483 332.67 110.739 334.002C107.26 334.808 99.9657 333.103 92.8584 329.821C92.1854 329.511 91.6114 329.256 91.5824 329.256C91.3414 329.256 84.8882 326.096 82.081 324.603C78.4339 322.664 71.0736 318.521 65.2474 315.128C63.5973 314.167 62.0032 313.242 61.7052 313.071C60.0802 312.142 59.3671 311.736 58.4781 311.235C58.2591 311.112 58.0431 310.974 57.9971 310.928C57.9511 310.882 57.7351 310.744 57.5161 310.621C57.2971 310.497 56.866 310.254 56.557 310.079C51.2808 307.089 36.7932 298.223 32.6801 295.464C19.9916 286.958 16.3414 278.496 17.6505 260.628C18.2145 252.943 19.2775 241.89 19.9226 237.031C20.3966 233.451 21.2096 228.099 21.6056 225.951C22.3746 221.772 23.1237 218.044 24.0477 213.787C25.3478 207.802 25.4348 206.123 24.5417 204.24C23.8657 202.811 22.3947 201.302 21.1036 200.712C20.2516 200.322 20.1786 200.247 20.2536 199.83C20.2986 199.58 20.4426 198.662 20.5736 197.791C20.8386 196.027 21.1436 194.27 21.6576 191.543C21.8476 190.535 22.0917 189.167 22.1997 188.503C22.3077 187.838 22.4597 187.294 22.5387 187.294C22.6177 187.294 22.6457 187.236 22.6017 187.165C22.5577 187.094 22.6207 186.55 22.7417 185.958C23.1967 183.724 23.6657 181.513 23.8907 180.546C24.4347 178.202 24.8748 176.32 25.0788 175.464C25.3328 174.403 26.4058 170.271 26.7448 169.049C26.8718 168.591 27.1238 167.655 27.3058 166.967C27.6309 165.732 27.7949 165.167 28.4909 162.885C28.6859 162.243 28.9189 161.418 29.0069 161.051C29.0959 160.685 29.2369 160.236 29.3199 160.052C29.4029 159.869 29.6719 159.044 29.918 158.219C30.484 156.321 30.823 155.29 30.99 154.965C31.061 154.824 31.177 154.449 31.247 154.131C31.316 153.813 31.58 152.991 31.833 152.304C32.085 151.617 32.7211 149.854 33.2451 148.389C34.3241 145.368 34.7872 144.111 35.0872 143.39C35.2012 143.115 35.4822 142.365 35.7112 141.723C36.6822 139.01 36.5882 139.141 37.5623 139.141C44.1535 139.141 48.0947 130.107 43.6325 125.226L42.7925 124.307L43.2275 123.388C43.4675 122.884 43.6635 122.421 43.6635 122.36C43.6635 122.3 43.8095 121.946 43.9875 121.573C44.1665 121.201 44.3895 120.689 44.4835 120.437C44.6475 119.999 44.7046 119.979 45.7906 119.979C48.0707 119.979 49.9588 119.192 51.3848 117.645C52.2358 116.722 56.267 109.323 56.901 107.523C57.516 105.771 61.2752 99.9487 63.8053 96.8285C69.3975 89.9303 73.4377 87.334 92.0564 78.6763C92.8675 78.2994 93.5615 77.9905 93.5975 77.9905C93.7025 77.9905 96.7326 76.6099 99.0817 75.4912C100.963 74.5954 102.373 73.9486 105.249 72.66C110.51 70.3036 117.037 67.9552 121.667 66.7515C125.186 65.8378 126.993 65.5049 130.708 65.089L131.5 65V75.0533Z" fill="#042394"/>
<path d="M131 256.5L165.25 219H199.5H233.75L268 256.5V297L199.5 302L131 297V256.5Z" fill="#D2D2D2"/>
<path d="M268 258.5L297.5 225.5L300.25 209H309L377.5 189L379.5 200.5L382.5 287.5L297.5 336H268V258.5Z" fill="#8E0010"/>
<path d="M131.5 259.5L102 226.5L99.25 210H90.5L22 190L20 201.5L17 288.5L102 337H131.5V259.5Z" fill="#041B54"/>
<path fill-rule="evenodd" clip-rule="evenodd" d="M129.583 49.947C125.613 50.292 121.125 51.185 116.333 52.585C115.188 52.92 113.987 53.27 113.667 53.363C112.329 53.75 107.008 55.639 106.25 55.997C106.067 56.083 105.167 56.446 104.25 56.804C103.333 57.161 102.08 57.689 101.465 57.977C100.85 58.265 100.298 58.5 100.238 58.5C100.177 58.5 99.568 58.762 98.883 59.083C98.197 59.404 97.613 59.667 97.583 59.667C97.553 59.667 96.716 60.048 95.723 60.514C93.967 61.337 93.515 61.55 90.468 62.984C89.672 63.36 88.979 63.667 88.93 63.667C88.88 63.667 88.22 63.957 87.462 64.311C86.119 64.939 84.088 65.869 83.417 66.164C82.294 66.656 70.946 72.302 69.5 73.089C67.006 74.445 62.388 77.518 61.301 78.544C61.181 78.657 60.708 79.046 60.25 79.408C58.23 81.004 53.91 85.598 51.701 88.5C51.317 89.004 50.929 89.505 50.839 89.613C50.75 89.721 50.355 90.283 49.963 90.863C49.571 91.442 49.193 91.992 49.123 92.083C48.586 92.786 46.232 96.581 45.981 97.15C45.855 97.434 45.695 97.667 45.626 97.667C45.557 97.667 45.5 97.738 45.5 97.826C45.5 97.914 45.263 98.382 44.974 98.868C43.804 100.832 41.152 106.31 39.505 110.167C38.937 111.496 38.374 112.808 38.255 113.083C38.135 113.358 37.866 114.071 37.657 114.667C37.448 115.263 37.226 115.825 37.164 115.917C37.102 116.008 36.733 116.983 36.344 118.083C35.955 119.183 35.571 120.233 35.49 120.417C35.291 120.87 34.546 123.044 33.091 127.417C31.504 132.188 30.999 133.769 30.07 136.875C29.94 137.31 29.716 138.06 29.572 138.542C29.428 139.023 29.171 139.904 29 140.5C28.829 141.096 28.567 141.996 28.417 142.5C27.569 145.342 25.965 151.08 24.991 154.75C24.797 155.483 24.536 156.458 24.413 156.917C24.289 157.375 24.002 158.462 23.776 159.333C23.549 160.204 23.162 161.667 22.915 162.583C22.668 163.5 22.33 164.813 22.164 165.5C21.998 166.188 21.366 168.7 20.76 171.083C20.154 173.467 19.505 176.054 19.319 176.833C19.132 177.612 18.879 178.662 18.755 179.167C18.632 179.671 18.369 180.758 18.171 181.583C17.973 182.408 17.7 183.533 17.564 184.083C17.009 186.324 16.849 186.986 16.5 188.5C16.299 189.371 16.033 190.496 15.91 191C15.786 191.504 15.568 192.442 15.426 193.083C15.283 193.725 14.983 195 14.759 195.917C14.535 196.833 14.195 198.258 14.003 199.083C13.811 199.908 13.512 201.183 13.338 201.917C13.165 202.65 12.897 203.813 12.744 204.5C12.24 206.766 11.818 208.574 11.657 209.167C11.57 209.487 11.388 210.275 11.252 210.917C11.117 211.558 10.884 212.608 10.735 213.25C10.586 213.892 10.36 214.867 10.232 215.417C10.104 215.967 9.85003 217.092 9.66703 217.917C9.48403 218.742 9.22903 219.867 9.10003 220.417C8.97103 220.967 8.70603 222.129 8.51003 223C8.31503 223.871 8.04703 225.033 7.91603 225.583C7.78603 226.133 7.56003 227.108 7.41603 227.75C7.27203 228.392 7.00303 229.404 6.81803 230C6.48303 231.081 6.28903 232.282 5.66103 237.167C5.47802 238.588 5.21503 240.612 5.07703 241.667C4.66703 244.782 4.35003 247.578 4.08603 250.417C3.95003 251.883 3.76203 253.796 3.66903 254.667C3.12203 259.763 3.12303 271.364 3.67103 274.75C3.76003 275.3 3.94303 276.462 4.07903 277.333C4.60003 280.692 5.36203 283.496 6.61103 286.654C7.14903 288.015 9.07203 291.768 9.35003 292C9.40503 292.046 9.54803 292.268 9.66703 292.495C10.554 294.176 14.314 298.728 16.267 300.484C18.842 302.799 19.083 303.006 20.081 303.753C20.446 304.026 20.934 304.413 21.164 304.611C21.774 305.137 23.858 306.611 25.583 307.737C26.408 308.276 27.383 308.915 27.75 309.158C28.117 309.4 28.529 309.651 28.667 309.715C28.804 309.779 29.967 310.503 31.25 311.324C32.533 312.145 34.333 313.27 35.25 313.823C36.167 314.377 37.704 315.316 38.667 315.911C39.629 316.506 41.204 317.473 42.167 318.059C55.108 325.95 56.323 326.667 56.755 326.667C56.877 326.667 57.075 326.763 57.196 326.882C57.408 327.088 59.792 328.5 59.929 328.5C59.991 328.5 63.428 330.479 64 330.843C64.137 330.931 64.438 331.094 64.667 331.205C64.896 331.317 65.683 331.755 66.417 332.179C67.824 332.992 69.373 333.846 71.167 334.796C71.762 335.111 72.325 335.425 72.417 335.494C73.266 336.129 84.855 341.882 87.417 342.941C87.967 343.168 88.642 343.452 88.917 343.571C90.83 344.402 94.718 345.844 96.333 346.322C97.021 346.525 97.771 346.76 98 346.844C98.413 346.995 99.365 347.218 102.25 347.841C106.309 348.717 112.13 348.79 114.65 347.995C114.888 347.92 115.646 347.694 116.333 347.493C117.021 347.292 117.808 347.029 118.083 346.909C119.997 346.076 120.66 345.737 122.019 344.896C122.863 344.374 123.675 343.828 123.824 343.682C123.973 343.536 124.354 343.22 124.672 342.98C126.412 341.665 129.435 338.171 130.885 335.799C132.361 333.384 132.698 332.748 133.739 330.417C133.985 329.867 134.255 329.267 134.34 329.083C134.521 328.691 135.392 326.307 135.832 325C136.625 322.642 137.604 318.407 138.008 315.583C138.1 314.942 138.249 313.915 138.338 313.301C138.427 312.688 138.5 310.901 138.5 309.33V306.474L138.958 306.568C139.21 306.621 140.129 306.784 141 306.931C141.871 307.079 143.183 307.305 143.917 307.434C156.286 309.604 170.952 310.997 187.083 311.533C211.233 312.336 236.8 310.817 256.083 307.434C256.817 307.305 258.129 307.079 259 306.931C259.871 306.784 260.79 306.621 261.042 306.568L261.5 306.474V309.33C261.5 310.901 261.573 312.688 261.662 313.301C261.751 313.915 261.9 314.942 261.992 315.583C262.601 319.841 264.331 326.205 265.66 329.083C265.745 329.267 266.015 329.867 266.261 330.417C267.302 332.748 267.639 333.384 269.115 335.799C270.565 338.171 273.588 341.665 275.328 342.98C275.646 343.22 276.027 343.536 276.176 343.682C276.325 343.828 277.137 344.374 277.981 344.896C279.34 345.737 280.003 346.076 281.917 346.909C282.192 347.029 282.979 347.292 283.667 347.493C284.354 347.694 285.112 347.92 285.35 347.995C287.87 348.79 293.691 348.717 297.75 347.841C300.635 347.218 301.587 346.995 302 346.844C302.229 346.76 302.979 346.525 303.667 346.322C305.282 345.844 309.17 344.402 311.083 343.571C311.358 343.452 312.033 343.168 312.583 342.941C315.18 341.868 326.723 336.138 327.583 335.494C327.675 335.425 328.237 335.111 328.833 334.796C330.75 333.781 332.217 332.969 333.63 332.141C334.389 331.697 335.054 331.333 335.108 331.333C335.162 331.333 336.079 330.819 337.145 330.191C338.211 329.562 339.533 328.802 340.083 328.501C341.826 327.548 342.577 327.101 342.804 326.881C342.925 326.763 343.123 326.667 343.245 326.667C343.677 326.667 344.892 325.95 357.833 318.059C358.796 317.473 360.371 316.506 361.333 315.911C362.296 315.316 363.833 314.377 364.75 313.823C365.667 313.27 367.467 312.145 368.75 311.324C370.033 310.503 371.196 309.779 371.333 309.715C371.471 309.651 371.883 309.4 372.25 309.158C372.617 308.915 373.592 308.276 374.417 307.737C376.142 306.611 378.226 305.137 378.836 304.611C379.066 304.413 379.554 304.026 379.919 303.753C380.954 302.978 381.828 302.223 383.973 300.25C385.931 298.449 389.465 294.14 390.333 292.495C390.452 292.268 390.595 292.046 390.65 292C390.928 291.768 392.851 288.015 393.389 286.654C394.638 283.495 395.4 280.69 395.921 277.333C396.056 276.462 396.242 275.3 396.334 274.75C396.91 271.315 396.912 260.21 396.338 255.75C396.243 255.017 396.051 252.954 395.911 251.167C395.515 246.136 395.126 242.338 394.339 235.833C394.017 233.171 393.896 232.301 393.175 227.5C392.665 224.102 391.6 218.233 390.939 215.167C390.81 214.571 390.581 213.446 390.429 212.667C389.587 208.346 388.553 204.091 388.155 203.311C386.46 199.988 381.896 198.478 378.695 200.18C374.709 202.3 373.749 204.918 374.929 210.455C375.256 211.992 375.787 214.487 376.109 216C376.659 218.591 377.455 222.711 378.167 226.667C379.786 235.646 382.172 258.773 382.164 265.4C382.143 283.669 378.604 288.396 353.917 303.138C348.769 306.211 341.44 310.61 338.417 312.439C337.225 313.16 335.912 313.899 335.5 314.08C335.087 314.262 334.188 314.741 333.5 315.145C305.635 331.513 292.965 336.223 286.269 332.705C280.148 329.488 275.172 315.654 276.334 305.083C276.58 302.85 276.571 302.87 277.377 302.667C282.766 301.304 294.81 297.615 300.25 295.661C300.983 295.398 302.783 294.76 304.25 294.244C305.717 293.728 308.004 292.905 309.333 292.415C322.363 287.615 321.927 287.809 323.313 286.234C326.967 282.083 324.836 275.674 319.379 274.4C317.557 273.975 316.847 274.137 310.833 276.362C302.389 279.487 300.638 280.124 297.333 281.279C291.675 283.256 285.536 285.257 281.833 286.331C281.146 286.531 280.246 286.796 279.833 286.921C272.687 289.086 261.839 291.577 253 293.083C252.129 293.231 251.004 293.423 250.5 293.509C247.504 294.021 239.314 295.041 234.5 295.501C230.137 295.918 228.781 296.027 224.167 296.331C207.338 297.437 184.174 297.227 169 295.831C162.141 295.2 153.074 294.12 149.5 293.509C148.996 293.423 147.871 293.231 147 293.083C139.265 291.765 130.259 289.786 124.25 288.084C123.792 287.955 122.704 287.652 121.833 287.413C120.962 287.173 120.063 286.913 119.833 286.834C119.604 286.756 118.854 286.529 118.167 286.331C112.975 284.836 103.942 281.817 96.5 279.092C92.596 277.662 92.119 277.485 91.667 277.303C88.995 276.225 83.87 274.448 83.004 274.3C79.2 273.647 75.484 276.681 74.899 280.917C74.661 282.647 75.783 285.475 77.223 286.769C78.288 287.727 78.649 287.907 82.002 289.159C83.513 289.723 84.9 290.249 85.083 290.326C85.398 290.459 86.179 290.749 88.208 291.483C88.69 291.658 89.683 292.027 90.417 292.304C96.491 294.598 107.622 298.364 112.958 299.93C113.715 300.152 114.99 300.527 115.792 300.764C116.594 301.001 118.575 301.555 120.194 301.996C123.778 302.97 123.436 302.739 123.581 304.289C123.648 305.001 123.736 305.733 123.777 305.917C123.884 306.394 123.879 310.624 123.77 311.417C123.72 311.783 123.634 312.458 123.579 312.917C123.131 316.672 121.661 321.653 119.968 325.156C115.685 334.016 110.753 335.695 99.833 332.009C95.333 330.491 90.427 328.287 83.75 324.788C76.006 320.728 75.097 320.244 73.5 319.324C69.709 317.139 64.983 314.505 64.417 314.26C64.05 314.102 63.637 313.908 63.5 313.828C62.587 313.303 57.795 310.367 57.25 309.999C56.883 309.752 56.508 309.52 56.417 309.483C56.198 309.396 52.243 307.013 50.75 306.069C50.108 305.663 49.292 305.163 48.936 304.957C48.58 304.752 48.167 304.508 48.019 304.415C47.39 304.021 45.268 302.726 44.798 302.449C44.517 302.283 43.416 301.602 42.352 300.936C41.287 300.269 39.404 299.098 38.167 298.333C22.687 288.768 18.722 283.051 17.969 269.216C17.793 265.984 17.934 259.305 18.235 256.583C18.276 256.217 18.392 254.867 18.493 253.583C18.595 252.3 18.712 251.063 18.754 250.833C18.797 250.604 18.942 249.404 19.076 248.167C19.211 246.929 19.36 245.654 19.407 245.333C19.455 245.012 19.604 243.85 19.739 242.75C19.992 240.692 20.381 237.844 20.65 236.083C20.775 235.262 22.201 228.835 22.832 226.25C22.982 225.638 23.275 224.345 23.911 221.5C24.286 219.819 24.821 217.486 25 216.75C25.089 216.383 25.615 214.096 26.17 211.667C26.724 209.237 27.289 206.762 27.425 206.167C27.561 205.571 27.742 204.821 27.827 204.5C27.913 204.179 28.141 203.204 28.336 202.333C28.53 201.463 28.867 200 29.085 199.083C29.303 198.167 29.712 196.442 29.993 195.25C30.275 194.058 30.736 192.108 31.018 190.917C32.941 182.795 35.91 170.89 37.898 163.333C38.128 162.462 38.472 161.15 38.664 160.417C39.574 156.944 42.82 145.393 43.441 143.417C43.672 142.683 44.113 141.221 44.421 140.167C45.982 134.836 49.73 123.957 51.541 119.5C53.427 114.859 54.112 113.323 55.852 109.833C61.781 97.94 67.904 90.8 76.083 86.241C77.356 85.532 86.365 81.005 88.25 80.128C91.714 78.517 94.681 77.167 94.76 77.167C94.806 77.167 96.134 76.558 97.713 75.814C103.963 72.87 105.841 72.032 110.25 70.22C123.245 64.881 134.373 63.144 139.353 65.678C141.903 66.975 144.547 71.302 146.819 77.894C147.686 80.411 147.719 80.245 146.292 80.585C137.69 82.636 125.687 86.653 117.917 90.082C113.216 92.157 111.21 93.061 109.353 93.942C108.127 94.524 107.101 95 107.075 95C107.048 95 105.539 95.72 103.721 96.599C101.904 97.478 99.779 98.506 99 98.883C92.784 101.891 93.032 110.317 99.401 112.497C101.609 113.252 103.15 112.973 107 111.12C108.237 110.525 110.59 109.391 112.228 108.602C113.865 107.813 115.228 107.167 115.256 107.167C115.284 107.167 116.006 106.839 116.861 106.438C118.228 105.797 119.132 105.39 121.917 104.163C132.806 99.366 145.246 95.343 154.917 93.491C155.467 93.385 156.442 93.197 157.083 93.072C158.101 92.873 162.17 92.196 165.5 91.67C166.715 91.478 170.065 91.082 172.583 90.833C173.5 90.742 174.963 90.592 175.833 90.499C188.132 89.193 211.597 89.191 224.167 90.495C225.037 90.586 226.5 90.736 227.417 90.829C230.072 91.098 233.325 91.485 234.5 91.67C237.83 92.196 241.899 92.873 242.917 93.072C243.558 93.197 244.533 93.385 245.083 93.491C254.789 95.349 266.922 99.29 278.333 104.292C282.74 106.223 281.833 105.8 293.917 111.559L296.417 112.75H298.333C303.86 112.75 307.246 107.289 304.769 102.371C303.617 100.085 303.034 99.728 291.895 94.494C277.575 87.765 265.731 83.451 253.708 80.585C252.263 80.241 252.29 80.446 253.316 77.551C255.649 70.968 258.122 66.962 260.647 65.678C264.219 63.86 270.673 64.175 279.167 66.582C285.766 68.452 292.084 70.971 301.75 75.586C303.033 76.199 304.422 76.834 304.836 76.999C309.285 78.766 323.153 85.676 326.159 87.624C332.521 91.746 340.018 100.631 342.705 107.233C342.965 107.873 343.391 108.776 343.65 109.24C343.909 109.704 344.781 111.358 345.587 112.917C348.417 118.391 350.169 119.701 354.315 119.446C358.858 119.167 362.155 113.813 360.355 109.639C359.394 107.411 355.864 100.275 355.025 98.868C354.736 98.382 354.5 97.914 354.5 97.826C354.5 97.738 354.443 97.667 354.374 97.667C354.305 97.667 354.145 97.434 354.019 97.15C353.768 96.581 351.414 92.786 350.877 92.083C350.807 91.992 350.429 91.442 350.037 90.863C349.645 90.283 349.25 89.721 349.161 89.613C349.071 89.505 348.683 89.004 348.299 88.5C346.09 85.598 341.77 81.004 339.75 79.408C339.292 79.046 338.819 78.657 338.699 78.544C338.097 77.976 334.811 75.622 333.637 74.918C331.218 73.467 329.748 72.68 325.083 70.337C320.194 67.881 318.277 66.952 315 65.452C314.496 65.222 313.426 64.725 312.622 64.35C311.818 63.974 311.12 63.667 311.07 63.667C311.021 63.667 310.328 63.36 309.532 62.984C306.485 61.55 306.033 61.337 304.277 60.514C303.284 60.048 302.447 59.667 302.417 59.667C302.387 59.667 301.803 59.404 301.117 59.083C300.432 58.762 299.823 58.5 299.762 58.5C299.702 58.5 299.15 58.265 298.535 57.977C297.92 57.689 296.667 57.161 295.75 56.804C294.833 56.446 293.933 56.083 293.75 55.997C292.992 55.639 287.671 53.75 286.333 53.363C286.012 53.27 284.813 52.92 283.667 52.585C279.619 51.4 276.883 50.806 272.5 50.158C265.134 49.069 256.537 50.564 252.092 53.708C249.18 55.767 247.626 57.309 245.595 60.15C244.065 62.293 242.115 65.839 241.186 68.171C241.059 68.489 240.857 68.975 240.736 69.25C240.316 70.205 239.22 73.261 238.584 75.25C238.232 76.35 237.926 77.274 237.905 77.303C237.884 77.332 237.278 77.269 236.558 77.162C234.65 76.88 231.766 76.539 228.917 76.26C227.542 76.125 225.629 75.934 224.667 75.835C222.943 75.658 221 75.516 215.083 75.134C211.078 74.875 188.922 74.875 184.917 75.134C179 75.516 177.057 75.658 175.333 75.835C174.371 75.934 172.458 76.125 171.083 76.26C168.234 76.539 165.35 76.88 163.442 77.162C162.722 77.269 162.116 77.332 162.095 77.303C162.074 77.274 161.768 76.35 161.416 75.25C160.78 73.261 159.684 70.205 159.264 69.25C159.143 68.975 158.941 68.489 158.814 68.171C156.695 62.852 153.057 57.655 149.583 54.985C147.399 53.306 147.528 53.388 145.583 52.427C141.354 50.335 135.523 49.432 129.583 49.947ZM358.833 122.646C353.708 124.502 352.455 131.147 356.324 135.958C361.888 142.876 372.457 135.61 368.382 127.667C368.265 127.438 368.168 127.185 368.168 127.105C368.166 126.824 366.972 124.997 366.448 124.473C364.56 122.586 361.217 121.784 358.833 122.646ZM127.75 161.916C111.885 163.607 98.468 173.822 91.411 189.583C86.801 199.88 85.698 212.832 88.501 223.75C90.4 231.149 93.738 237.745 98.41 243.333C99.393 244.51 103.448 248.444 104.5 249.242C105.893 250.299 108.32 252 108.435 252C108.483 252 108.837 252.211 109.22 252.469C117.158 257.811 129.915 259.492 140.314 256.568C169.622 248.325 183.331 210.495 167.021 182.868C158.616 168.632 142.984 160.292 127.75 161.916ZM267.167 161.777C242.131 163.522 224.455 185.173 226.133 212.042C228.657 252.442 272.172 272.719 299.017 246.004C327.196 217.961 310.418 165.592 272.077 161.919C269.569 161.678 268.872 161.658 267.167 161.777ZM134.833 176.503C135.246 176.585 135.921 176.699 136.333 176.758C138.235 177.03 144.093 179.307 144.306 179.856C144.336 179.935 144.431 180 144.516 180C144.662 180 145.727 180.709 146.998 181.652C149.064 183.186 151.808 186.099 153.448 188.5C154.091 189.441 155.667 192.094 155.667 192.235C155.667 192.293 155.967 192.966 156.333 193.73C156.7 194.495 157 195.207 157 195.312C157 195.418 157.069 195.635 157.153 195.794C157.291 196.053 157.552 196.814 158.15 198.694C159.831 203.978 159.84 214.113 158.167 219C158.089 219.229 157.859 219.979 157.657 220.667C157.455 221.354 157.235 221.992 157.168 222.083C157.101 222.175 156.993 222.475 156.929 222.75C156.865 223.025 156.598 223.7 156.336 224.25C156.074 224.8 155.744 225.512 155.602 225.833C155.014 227.165 152.514 231.214 152 231.667C151.948 231.713 151.609 232.125 151.247 232.583C148.115 236.546 143.433 240.043 139 241.731C138.313 241.992 137.6 242.267 137.417 242.34C134.174 243.637 126.96 243.885 123.417 242.823C121.727 242.316 120.561 241.929 120.417 241.827C120.325 241.763 119.97 241.62 119.628 241.51C118.989 241.304 115.983 239.724 115.833 239.515C115.787 239.451 115.484 239.238 115.159 239.04C114.834 238.843 114.409 238.547 114.214 238.383C114.02 238.218 113.648 237.933 113.389 237.75C112.413 237.061 109.512 234.028 108.446 232.583C107.837 231.758 107.281 231.008 107.209 230.917C107.137 230.825 106.756 230.188 106.363 229.5C105.97 228.813 105.577 228.137 105.49 228C105.404 227.862 105.254 227.563 105.157 227.333C105.061 227.104 104.768 226.467 104.508 225.917C102.241 221.133 101.05 213.837 101.577 207.962C101.728 206.287 101.891 204.804 101.939 204.667C101.987 204.529 102.127 203.892 102.25 203.25C102.697 200.914 103.532 198.086 104.292 196.333C106.645 190.905 109.341 187.04 113.186 183.583C114.631 182.284 114.947 182.033 116.137 181.238C116.749 180.829 117.329 180.44 117.426 180.372C117.958 180.002 118.397 179.764 119.833 179.07C120.704 178.649 121.567 178.236 121.75 178.154C122.036 178.024 123.399 177.578 125.25 177.007C127.502 176.313 132.528 176.049 134.833 176.503ZM272.667 176.605C273.537 176.741 274.475 176.922 274.75 177.007C276.601 177.578 277.964 178.024 278.25 178.154C278.433 178.236 279.296 178.649 280.167 179.07C281.603 179.764 282.042 180.002 282.574 180.372C282.671 180.44 283.251 180.829 283.863 181.238C285.053 182.033 285.369 182.284 286.814 183.583C290.659 187.04 293.355 190.905 295.708 196.333C296.468 198.086 297.303 200.914 297.75 203.25C297.873 203.892 298.013 204.529 298.061 204.667C298.109 204.804 298.272 206.287 298.423 207.962C298.95 213.837 297.759 221.133 295.492 225.917C295.232 226.467 294.939 227.104 294.843 227.333C294.746 227.563 294.596 227.862 294.51 228C294.423 228.137 294.03 228.813 293.637 229.5C293.244 230.188 292.863 230.825 292.791 230.917C292.719 231.008 292.163 231.758 291.554 232.583C290.488 234.028 287.587 237.061 286.611 237.75C286.352 237.933 285.98 238.218 285.786 238.383C285.591 238.547 285.166 238.843 284.841 239.04C284.516 239.238 284.212 239.451 284.167 239.515C284.017 239.724 281.011 241.304 280.372 241.51C280.03 241.62 279.675 241.763 279.583 241.827C279.439 241.929 278.273 242.316 276.583 242.823C273.04 243.885 265.826 243.637 262.583 242.34C262.4 242.267 261.688 241.992 261 241.731C256.567 240.043 251.885 236.546 248.753 232.583C248.391 232.125 248.052 231.713 248 231.667C247.486 231.214 244.986 227.165 244.398 225.833C244.256 225.512 243.926 224.8 243.664 224.25C243.402 223.7 243.135 223.025 243.071 222.75C243.007 222.475 242.899 222.175 242.832 222.083C242.765 221.992 242.545 221.354 242.343 220.667C242.141 219.979 241.911 219.229 241.833 219C240.16 214.113 240.169 203.978 241.85 198.694C242.448 196.814 242.709 196.053 242.847 195.794C242.931 195.635 243 195.418 243 195.312C243 195.207 243.3 194.495 243.667 193.73C244.033 192.966 244.333 192.293 244.333 192.235C244.333 192.094 245.909 189.441 246.552 188.5C248.192 186.099 250.936 183.186 253.002 181.652C254.273 180.709 255.338 180 255.484 180C255.569 180 255.664 179.935 255.694 179.856C255.725 179.777 256.462 179.369 257.333 178.95C262.439 176.494 267.257 175.757 272.667 176.605Z" fill="#040404" stroke="black" stroke-width="2"/>
</svg>